<mxfile host="app.diagrams.net" modified="2023-12-24T10:26:36.810Z" agent="Mozilla/5.0 (Windows NT 10.0; Win64; x64) AppleWebKit/537.36 (KHTML, like Gecko) Chrome/120.0.0.0 Safari/537.36" etag="9DyfdM09jCUQbl5-i2kf" version="22.1.11" type="device">
  <diagram name="Страница — 1" id="mddZE6BXG_-6Eis1NXBh">
    <mxGraphModel dx="3827" dy="2783" grid="1" gridSize="10" guides="1" tooltips="1" connect="1" arrows="1" fold="1" page="1" pageScale="1" pageWidth="827" pageHeight="1169" math="0" shadow="0">
      <root>
        <mxCell id="0" />
        <mxCell id="1" parent="0" />
        <mxCell id="_g9wZrL5RG72bcAjYGhw-1" value="Начало" style="ellipse;whiteSpace=wrap;html=1;" vertex="1" parent="1">
          <mxGeometry x="330" y="-250" width="160" height="60" as="geometry" />
        </mxCell>
        <mxCell id="_g9wZrL5RG72bcAjYGhw-2" value="Переход пользователя на главную активность при старте приложения" style="rounded=0;whiteSpace=wrap;html=1;" vertex="1" parent="1">
          <mxGeometry x="330" y="-120" width="160" height="80" as="geometry" />
        </mxCell>
        <mxCell id="_g9wZrL5RG72bcAjYGhw-3" value="Отрисовка текстур аквариума, воды, фона, а также 2D моделей обитателей" style="rounded=0;whiteSpace=wrap;html=1;" vertex="1" parent="1">
          <mxGeometry x="336.25" y="430" width="147.5" height="80" as="geometry" />
        </mxCell>
        <mxCell id="_g9wZrL5RG72bcAjYGhw-6" value="Был выбран один из&lt;br&gt;режимов 2D визуализации?" style="rhombus;whiteSpace=wrap;html=1;" vertex="1" parent="1">
          <mxGeometry x="310" y="890" width="200" height="110" as="geometry" />
        </mxCell>
        <mxCell id="_g9wZrL5RG72bcAjYGhw-10" value="Статическая перерисовка сцены каждые 30 секунд&lt;br&gt;с очищением буферов&lt;br&gt;цвета и глубины" style="strokeWidth=2;html=1;shape=mxgraph.flowchart.loop_limit;whiteSpace=wrap;" vertex="1" parent="1">
          <mxGeometry x="317.5" y="40" width="180" height="100" as="geometry" />
        </mxCell>
        <mxCell id="_g9wZrL5RG72bcAjYGhw-11" value="Ожидание &lt;br&gt;взаимодействия&lt;br&gt;&amp;nbsp;пользователя с&lt;br&gt;&amp;nbsp;контрольными &lt;br&gt;элементами UI" style="shape=parallelogram;html=1;strokeWidth=2;perimeter=parallelogramPerimeter;whiteSpace=wrap;rounded=1;arcSize=12;size=0.23;" vertex="1" parent="1">
          <mxGeometry x="320" y="560" width="180" height="100" as="geometry" />
        </mxCell>
        <mxCell id="_g9wZrL5RG72bcAjYGhw-12" value="Выбор режима &quot;Водоросли&quot; (фрактал)" style="rounded=0;whiteSpace=wrap;html=1;" vertex="1" parent="1">
          <mxGeometry x="140" y="1130" width="150" height="70" as="geometry" />
        </mxCell>
        <mxCell id="_g9wZrL5RG72bcAjYGhw-13" value="Выбор режима&lt;br&gt;&quot;Заплыв рыбки&quot;" style="rounded=0;whiteSpace=wrap;html=1;" vertex="1" parent="1">
          <mxGeometry x="330" y="1130" width="140" height="70" as="geometry" />
        </mxCell>
        <mxCell id="_g9wZrL5RG72bcAjYGhw-14" value="Выбор режима&amp;nbsp;&lt;br&gt;&quot;Коллизия рыбок&quot;" style="rounded=0;whiteSpace=wrap;html=1;" vertex="1" parent="1">
          <mxGeometry x="525" y="1130" width="130" height="70" as="geometry" />
        </mxCell>
        <mxCell id="_g9wZrL5RG72bcAjYGhw-15" value="Отрисовка водорослей в виде фракталов множества Жюлиа&amp;nbsp;" style="rounded=0;whiteSpace=wrap;html=1;" vertex="1" parent="1">
          <mxGeometry x="140" y="1250" width="150" height="80" as="geometry" />
        </mxCell>
        <mxCell id="_g9wZrL5RG72bcAjYGhw-16" value="Отрисовка рыбки с прикреплением к ней управления через UI" style="rounded=0;whiteSpace=wrap;html=1;" vertex="1" parent="1">
          <mxGeometry x="330" y="1250" width="140" height="80" as="geometry" />
        </mxCell>
        <mxCell id="_g9wZrL5RG72bcAjYGhw-17" value="Отрисовка 2 рыбок со свободным плаванием (без прикрепления управления через UI)&amp;nbsp;" style="rounded=0;whiteSpace=wrap;html=1;" vertex="1" parent="1">
          <mxGeometry x="520" y="1250" width="140" height="80" as="geometry" />
        </mxCell>
        <mxCell id="_g9wZrL5RG72bcAjYGhw-19" value="Включен фильтр&lt;br&gt;увеличения резкости?" style="rhombus;whiteSpace=wrap;html=1;" vertex="1" parent="1">
          <mxGeometry x="322.5" y="245" width="175" height="110" as="geometry" />
        </mxCell>
        <mxCell id="_g9wZrL5RG72bcAjYGhw-20" value="Применение ядра высокочастотного фильтра" style="rounded=0;whiteSpace=wrap;html=1;" vertex="1" parent="1">
          <mxGeometry x="580" y="260" width="150" height="80" as="geometry" />
        </mxCell>
        <mxCell id="_g9wZrL5RG72bcAjYGhw-21" value="Коллизия произошла?" style="rhombus;whiteSpace=wrap;html=1;" vertex="1" parent="1">
          <mxGeometry x="530" y="1370" width="120" height="80" as="geometry" />
        </mxCell>
        <mxCell id="_g9wZrL5RG72bcAjYGhw-22" value="Очищение моделей рыбок с экрана, применение фильтра" style="rounded=0;whiteSpace=wrap;html=1;" vertex="1" parent="1">
          <mxGeometry x="530" y="1495" width="120" height="70" as="geometry" />
        </mxCell>
        <mxCell id="_g9wZrL5RG72bcAjYGhw-23" value="Применение контрастного фильтра к моделям, отрисовка фракталов типа ромб" style="rounded=0;whiteSpace=wrap;html=1;" vertex="1" parent="1">
          <mxGeometry x="140" y="1485" width="150" height="80" as="geometry" />
        </mxCell>
        <mxCell id="_g9wZrL5RG72bcAjYGhw-24" value="Ожидание команд&lt;br&gt;управления от&lt;br&gt;пользователя" style="shape=parallelogram;html=1;strokeWidth=2;perimeter=parallelogramPerimeter;whiteSpace=wrap;rounded=1;arcSize=12;size=0.23;" vertex="1" parent="1">
          <mxGeometry x="317.5" y="1480" width="162.5" height="80" as="geometry" />
        </mxCell>
        <mxCell id="_g9wZrL5RG72bcAjYGhw-25" value="Считывание информации о прошлом состоянии двумерной сцены" style="rounded=0;whiteSpace=wrap;html=1;" vertex="1" parent="1">
          <mxGeometry x="1240.5" y="990" width="143" height="75" as="geometry" />
        </mxCell>
        <mxCell id="_g9wZrL5RG72bcAjYGhw-26" value="Отрисовка в 3D режиме старых моделей рыбок и моллюсков на сцене" style="rounded=0;whiteSpace=wrap;html=1;" vertex="1" parent="1">
          <mxGeometry x="1243" y="1120" width="138" height="70" as="geometry" />
        </mxCell>
        <mxCell id="_g9wZrL5RG72bcAjYGhw-27" value="Взаимодействие&lt;br&gt;пользователя с UI" style="shape=parallelogram;html=1;strokeWidth=2;perimeter=parallelogramPerimeter;whiteSpace=wrap;rounded=1;arcSize=12;size=0.23;" vertex="1" parent="1">
          <mxGeometry x="1227" y="1247.5" width="170" height="85" as="geometry" />
        </mxCell>
        <mxCell id="_g9wZrL5RG72bcAjYGhw-29" value="Выбор новой рыбки из списка" style="rounded=0;whiteSpace=wrap;html=1;" vertex="1" parent="1">
          <mxGeometry x="1050" y="1550" width="140" height="80" as="geometry" />
        </mxCell>
        <mxCell id="_g9wZrL5RG72bcAjYGhw-30" value="Выбор режима 3D визуализации" style="rhombus;whiteSpace=wrap;html=1;" vertex="1" parent="1">
          <mxGeometry x="1233.5" y="1380" width="157" height="100" as="geometry" />
        </mxCell>
        <mxCell id="_g9wZrL5RG72bcAjYGhw-31" value="Выбор нового моллюска из списка" style="rounded=0;whiteSpace=wrap;html=1;" vertex="1" parent="1">
          <mxGeometry x="1240" y="1555" width="140" height="80" as="geometry" />
        </mxCell>
        <mxCell id="_g9wZrL5RG72bcAjYGhw-32" value="Выбор режима &quot;Покормить рыбку&quot;" style="rounded=0;whiteSpace=wrap;html=1;" vertex="1" parent="1">
          <mxGeometry x="1447" y="1555" width="140" height="80" as="geometry" />
        </mxCell>
        <mxCell id="_g9wZrL5RG72bcAjYGhw-33" value="Отрисовка 3D частиц корма, попадающих&lt;br&gt;в зону модели&lt;br&gt;аквариума" style="rounded=0;whiteSpace=wrap;html=1;" vertex="1" parent="1">
          <mxGeometry x="1447" y="1690" width="140" height="80" as="geometry" />
        </mxCell>
        <mxCell id="_g9wZrL5RG72bcAjYGhw-34" value="Отрисовка 3D модели выбранного моллюска с применением фильтров" style="rounded=0;whiteSpace=wrap;html=1;" vertex="1" parent="1">
          <mxGeometry x="1241" y="1690" width="140" height="80" as="geometry" />
        </mxCell>
        <mxCell id="_g9wZrL5RG72bcAjYGhw-35" value="Отрисовка 3D модели выбранной рыбки с применением фильтров" style="rounded=0;whiteSpace=wrap;html=1;" vertex="1" parent="1">
          <mxGeometry x="1050" y="1690" width="140" height="80" as="geometry" />
        </mxCell>
        <mxCell id="_g9wZrL5RG72bcAjYGhw-36" value="Выбор растровых&lt;br&gt;фильтров и настроек&lt;br&gt;управления" style="shape=parallelogram;html=1;strokeWidth=2;perimeter=parallelogramPerimeter;whiteSpace=wrap;rounded=1;arcSize=12;size=0.23;" vertex="1" parent="1">
          <mxGeometry x="313.75" y="1690" width="170" height="85" as="geometry" />
        </mxCell>
        <mxCell id="_g9wZrL5RG72bcAjYGhw-37" value="Текущий&lt;br&gt;фильтр&amp;nbsp;&lt;br&gt;&amp;nbsp;был обновлен?" style="rhombus;whiteSpace=wrap;html=1;" vertex="1" parent="1">
          <mxGeometry x="323.75" y="1830" width="152.5" height="110" as="geometry" />
        </mxCell>
        <mxCell id="_g9wZrL5RG72bcAjYGhw-39" value="Кэширование информации о&lt;br&gt;&amp;nbsp;состоянии сцены" style="rounded=0;whiteSpace=wrap;html=1;" vertex="1" parent="1">
          <mxGeometry x="326.25" y="2050" width="150" height="90" as="geometry" />
        </mxCell>
        <mxCell id="_g9wZrL5RG72bcAjYGhw-40" value="Пользователь нажал&lt;br&gt;кнопку выхода&lt;br&gt;&amp;nbsp;из приложения?" style="rhombus;whiteSpace=wrap;html=1;" vertex="1" parent="1">
          <mxGeometry x="304.38" y="720" width="211.25" height="130" as="geometry" />
        </mxCell>
        <mxCell id="_g9wZrL5RG72bcAjYGhw-41" value="Конец" style="ellipse;whiteSpace=wrap;html=1;" vertex="1" parent="1">
          <mxGeometry x="750" y="2500" width="160" height="60" as="geometry" />
        </mxCell>
        <mxCell id="_g9wZrL5RG72bcAjYGhw-42" value="Закрытие приложения, удаление графических моделей с формы" style="rounded=0;whiteSpace=wrap;html=1;" vertex="1" parent="1">
          <mxGeometry x="755" y="2330" width="150" height="90" as="geometry" />
        </mxCell>
        <mxCell id="_g9wZrL5RG72bcAjYGhw-43" value="" style="endArrow=classic;html=1;rounded=0;exitX=0.5;exitY=1;exitDx=0;exitDy=0;entryX=0.5;entryY=0;entryDx=0;entryDy=0;" edge="1" parent="1" source="_g9wZrL5RG72bcAjYGhw-1" target="_g9wZrL5RG72bcAjYGhw-2">
          <mxGeometry width="50" height="50" relative="1" as="geometry">
            <mxPoint x="770" y="300" as="sourcePoint" />
            <mxPoint x="820" y="250" as="targetPoint" />
          </mxGeometry>
        </mxCell>
        <mxCell id="_g9wZrL5RG72bcAjYGhw-44" value="" style="endArrow=classic;html=1;rounded=0;entryX=0.5;entryY=0;entryDx=0;entryDy=0;exitX=0.5;exitY=1;exitDx=0;exitDy=0;exitPerimeter=0;" edge="1" parent="1" source="_g9wZrL5RG72bcAjYGhw-10" target="_g9wZrL5RG72bcAjYGhw-19">
          <mxGeometry width="50" height="50" relative="1" as="geometry">
            <mxPoint x="410" y="130" as="sourcePoint" />
            <mxPoint x="820" y="250" as="targetPoint" />
          </mxGeometry>
        </mxCell>
        <mxCell id="_g9wZrL5RG72bcAjYGhw-45" value="" style="endArrow=classic;html=1;rounded=0;exitX=1;exitY=0.5;exitDx=0;exitDy=0;entryX=0;entryY=0.5;entryDx=0;entryDy=0;" edge="1" parent="1" source="_g9wZrL5RG72bcAjYGhw-19" target="_g9wZrL5RG72bcAjYGhw-20">
          <mxGeometry width="50" height="50" relative="1" as="geometry">
            <mxPoint x="770" y="300" as="sourcePoint" />
            <mxPoint x="820" y="250" as="targetPoint" />
          </mxGeometry>
        </mxCell>
        <mxCell id="_g9wZrL5RG72bcAjYGhw-46" value="" style="endArrow=none;html=1;rounded=0;exitX=1;exitY=0.5;exitDx=0;exitDy=0;" edge="1" parent="1" source="_g9wZrL5RG72bcAjYGhw-20">
          <mxGeometry width="50" height="50" relative="1" as="geometry">
            <mxPoint x="770" y="300" as="sourcePoint" />
            <mxPoint x="810" y="300" as="targetPoint" />
          </mxGeometry>
        </mxCell>
        <mxCell id="_g9wZrL5RG72bcAjYGhw-47" value="" style="endArrow=none;html=1;rounded=0;" edge="1" parent="1">
          <mxGeometry width="50" height="50" relative="1" as="geometry">
            <mxPoint x="810" y="300" as="sourcePoint" />
            <mxPoint x="810" y="390" as="targetPoint" />
          </mxGeometry>
        </mxCell>
        <mxCell id="_g9wZrL5RG72bcAjYGhw-49" value="" style="endArrow=classic;html=1;rounded=0;exitX=0.5;exitY=1;exitDx=0;exitDy=0;entryX=0.5;entryY=0;entryDx=0;entryDy=0;" edge="1" parent="1" source="_g9wZrL5RG72bcAjYGhw-19" target="_g9wZrL5RG72bcAjYGhw-3">
          <mxGeometry width="50" height="50" relative="1" as="geometry">
            <mxPoint x="770" y="300" as="sourcePoint" />
            <mxPoint x="820" y="250" as="targetPoint" />
          </mxGeometry>
        </mxCell>
        <mxCell id="_g9wZrL5RG72bcAjYGhw-50" value="" style="endArrow=classic;html=1;rounded=0;" edge="1" parent="1">
          <mxGeometry width="50" height="50" relative="1" as="geometry">
            <mxPoint x="810" y="390" as="sourcePoint" />
            <mxPoint x="410" y="390" as="targetPoint" />
          </mxGeometry>
        </mxCell>
        <mxCell id="_g9wZrL5RG72bcAjYGhw-51" value="" style="endArrow=classic;html=1;rounded=0;exitX=0.5;exitY=1;exitDx=0;exitDy=0;entryX=0.5;entryY=0;entryDx=0;entryDy=0;" edge="1" parent="1" source="_g9wZrL5RG72bcAjYGhw-3" target="_g9wZrL5RG72bcAjYGhw-11">
          <mxGeometry width="50" height="50" relative="1" as="geometry">
            <mxPoint x="770" y="550" as="sourcePoint" />
            <mxPoint x="820" y="500" as="targetPoint" />
          </mxGeometry>
        </mxCell>
        <mxCell id="_g9wZrL5RG72bcAjYGhw-52" value="" style="endArrow=classic;html=1;rounded=0;exitX=0.5;exitY=1;exitDx=0;exitDy=0;entryX=0.5;entryY=0;entryDx=0;entryDy=0;" edge="1" parent="1" source="_g9wZrL5RG72bcAjYGhw-11" target="_g9wZrL5RG72bcAjYGhw-40">
          <mxGeometry width="50" height="50" relative="1" as="geometry">
            <mxPoint x="770" y="760" as="sourcePoint" />
            <mxPoint x="820" y="710" as="targetPoint" />
          </mxGeometry>
        </mxCell>
        <mxCell id="_g9wZrL5RG72bcAjYGhw-54" value="" style="endArrow=none;html=1;rounded=0;exitX=1;exitY=0.5;exitDx=0;exitDy=0;" edge="1" parent="1" source="_g9wZrL5RG72bcAjYGhw-40">
          <mxGeometry width="50" height="50" relative="1" as="geometry">
            <mxPoint x="770" y="970" as="sourcePoint" />
            <mxPoint x="820" y="785" as="targetPoint" />
          </mxGeometry>
        </mxCell>
        <mxCell id="_g9wZrL5RG72bcAjYGhw-55" value="" style="endArrow=classic;html=1;rounded=0;entryX=0.5;entryY=0;entryDx=0;entryDy=0;" edge="1" parent="1" target="_g9wZrL5RG72bcAjYGhw-42">
          <mxGeometry width="50" height="50" relative="1" as="geometry">
            <mxPoint x="820" y="790" as="sourcePoint" />
            <mxPoint x="820" y="2180" as="targetPoint" />
          </mxGeometry>
        </mxCell>
        <mxCell id="_g9wZrL5RG72bcAjYGhw-56" value="" style="endArrow=classic;html=1;rounded=0;exitX=0.5;exitY=1;exitDx=0;exitDy=0;entryX=0.5;entryY=0;entryDx=0;entryDy=0;" edge="1" parent="1" source="_g9wZrL5RG72bcAjYGhw-42" target="_g9wZrL5RG72bcAjYGhw-41">
          <mxGeometry width="50" height="50" relative="1" as="geometry">
            <mxPoint x="775" y="2280" as="sourcePoint" />
            <mxPoint x="825" y="2230" as="targetPoint" />
          </mxGeometry>
        </mxCell>
        <mxCell id="_g9wZrL5RG72bcAjYGhw-57" value="" style="endArrow=classic;html=1;rounded=0;entryX=0.5;entryY=0;entryDx=0;entryDy=0;" edge="1" parent="1" target="_g9wZrL5RG72bcAjYGhw-6">
          <mxGeometry width="50" height="50" relative="1" as="geometry">
            <mxPoint x="410" y="850" as="sourcePoint" />
            <mxPoint x="820" y="950" as="targetPoint" />
          </mxGeometry>
        </mxCell>
        <mxCell id="_g9wZrL5RG72bcAjYGhw-59" value="" style="endArrow=none;html=1;rounded=0;entryX=0.5;entryY=1;entryDx=0;entryDy=0;" edge="1" parent="1" target="_g9wZrL5RG72bcAjYGhw-6">
          <mxGeometry width="50" height="50" relative="1" as="geometry">
            <mxPoint x="410" y="1040" as="sourcePoint" />
            <mxPoint x="820" y="1140" as="targetPoint" />
          </mxGeometry>
        </mxCell>
        <mxCell id="_g9wZrL5RG72bcAjYGhw-60" value="" style="endArrow=none;html=1;rounded=0;" edge="1" parent="1">
          <mxGeometry width="50" height="50" relative="1" as="geometry">
            <mxPoint x="210" y="1040" as="sourcePoint" />
            <mxPoint x="590" y="1040" as="targetPoint" />
          </mxGeometry>
        </mxCell>
        <mxCell id="_g9wZrL5RG72bcAjYGhw-61" value="" style="endArrow=classic;html=1;rounded=0;entryX=0.5;entryY=0;entryDx=0;entryDy=0;" edge="1" parent="1" target="_g9wZrL5RG72bcAjYGhw-12">
          <mxGeometry width="50" height="50" relative="1" as="geometry">
            <mxPoint x="215" y="1040" as="sourcePoint" />
            <mxPoint x="820" y="1290" as="targetPoint" />
          </mxGeometry>
        </mxCell>
        <mxCell id="_g9wZrL5RG72bcAjYGhw-62" value="" style="endArrow=classic;html=1;rounded=0;entryX=0.5;entryY=0;entryDx=0;entryDy=0;" edge="1" parent="1" target="_g9wZrL5RG72bcAjYGhw-13">
          <mxGeometry width="50" height="50" relative="1" as="geometry">
            <mxPoint x="400" y="1040" as="sourcePoint" />
            <mxPoint x="820" y="1290" as="targetPoint" />
          </mxGeometry>
        </mxCell>
        <mxCell id="_g9wZrL5RG72bcAjYGhw-63" value="" style="endArrow=classic;html=1;rounded=0;entryX=0.5;entryY=0;entryDx=0;entryDy=0;" edge="1" parent="1" target="_g9wZrL5RG72bcAjYGhw-14">
          <mxGeometry width="50" height="50" relative="1" as="geometry">
            <mxPoint x="590" y="1040" as="sourcePoint" />
            <mxPoint x="820" y="1290" as="targetPoint" />
          </mxGeometry>
        </mxCell>
        <mxCell id="_g9wZrL5RG72bcAjYGhw-64" value="" style="endArrow=classic;html=1;rounded=0;exitX=0.5;exitY=1;exitDx=0;exitDy=0;entryX=0.5;entryY=0;entryDx=0;entryDy=0;" edge="1" parent="1" source="_g9wZrL5RG72bcAjYGhw-12" target="_g9wZrL5RG72bcAjYGhw-15">
          <mxGeometry width="50" height="50" relative="1" as="geometry">
            <mxPoint x="770" y="1430" as="sourcePoint" />
            <mxPoint x="820" y="1380" as="targetPoint" />
          </mxGeometry>
        </mxCell>
        <mxCell id="_g9wZrL5RG72bcAjYGhw-65" value="" style="endArrow=classic;html=1;rounded=0;exitX=0.5;exitY=1;exitDx=0;exitDy=0;entryX=0.5;entryY=0;entryDx=0;entryDy=0;" edge="1" parent="1" source="_g9wZrL5RG72bcAjYGhw-13" target="_g9wZrL5RG72bcAjYGhw-16">
          <mxGeometry width="50" height="50" relative="1" as="geometry">
            <mxPoint x="770" y="1430" as="sourcePoint" />
            <mxPoint x="820" y="1380" as="targetPoint" />
          </mxGeometry>
        </mxCell>
        <mxCell id="_g9wZrL5RG72bcAjYGhw-66" value="" style="endArrow=classic;html=1;rounded=0;exitX=0.5;exitY=1;exitDx=0;exitDy=0;" edge="1" parent="1" source="_g9wZrL5RG72bcAjYGhw-14" target="_g9wZrL5RG72bcAjYGhw-17">
          <mxGeometry width="50" height="50" relative="1" as="geometry">
            <mxPoint x="770" y="1430" as="sourcePoint" />
            <mxPoint x="820" y="1380" as="targetPoint" />
          </mxGeometry>
        </mxCell>
        <mxCell id="_g9wZrL5RG72bcAjYGhw-67" value="" style="endArrow=classic;html=1;rounded=0;exitX=0.5;exitY=1;exitDx=0;exitDy=0;entryX=0.5;entryY=0;entryDx=0;entryDy=0;" edge="1" parent="1" source="_g9wZrL5RG72bcAjYGhw-15" target="_g9wZrL5RG72bcAjYGhw-23">
          <mxGeometry width="50" height="50" relative="1" as="geometry">
            <mxPoint x="770" y="1430" as="sourcePoint" />
            <mxPoint x="820" y="1380" as="targetPoint" />
          </mxGeometry>
        </mxCell>
        <mxCell id="_g9wZrL5RG72bcAjYGhw-68" value="" style="endArrow=classic;html=1;rounded=0;exitX=0.5;exitY=1;exitDx=0;exitDy=0;" edge="1" parent="1" source="_g9wZrL5RG72bcAjYGhw-16" target="_g9wZrL5RG72bcAjYGhw-24">
          <mxGeometry width="50" height="50" relative="1" as="geometry">
            <mxPoint x="770" y="1430" as="sourcePoint" />
            <mxPoint x="820" y="1380" as="targetPoint" />
          </mxGeometry>
        </mxCell>
        <mxCell id="_g9wZrL5RG72bcAjYGhw-69" value="" style="endArrow=classic;html=1;rounded=0;exitX=0.5;exitY=1;exitDx=0;exitDy=0;entryX=0.5;entryY=0;entryDx=0;entryDy=0;" edge="1" parent="1" source="_g9wZrL5RG72bcAjYGhw-17" target="_g9wZrL5RG72bcAjYGhw-21">
          <mxGeometry width="50" height="50" relative="1" as="geometry">
            <mxPoint x="770" y="1430" as="sourcePoint" />
            <mxPoint x="820" y="1380" as="targetPoint" />
          </mxGeometry>
        </mxCell>
        <mxCell id="_g9wZrL5RG72bcAjYGhw-70" value="" style="endArrow=classic;html=1;rounded=0;exitX=0.5;exitY=1;exitDx=0;exitDy=0;" edge="1" parent="1" source="_g9wZrL5RG72bcAjYGhw-21" target="_g9wZrL5RG72bcAjYGhw-22">
          <mxGeometry width="50" height="50" relative="1" as="geometry">
            <mxPoint x="770" y="1430" as="sourcePoint" />
            <mxPoint x="820" y="1380" as="targetPoint" />
          </mxGeometry>
        </mxCell>
        <mxCell id="_g9wZrL5RG72bcAjYGhw-72" value="" style="endArrow=none;html=1;rounded=0;exitX=1;exitY=0.5;exitDx=0;exitDy=0;" edge="1" parent="1" source="_g9wZrL5RG72bcAjYGhw-21">
          <mxGeometry width="50" height="50" relative="1" as="geometry">
            <mxPoint x="770" y="1430" as="sourcePoint" />
            <mxPoint x="700" y="1410" as="targetPoint" />
          </mxGeometry>
        </mxCell>
        <mxCell id="_g9wZrL5RG72bcAjYGhw-73" value="" style="endArrow=none;html=1;rounded=0;" edge="1" parent="1">
          <mxGeometry width="50" height="50" relative="1" as="geometry">
            <mxPoint x="700" y="1410" as="sourcePoint" />
            <mxPoint x="700" y="1350" as="targetPoint" />
          </mxGeometry>
        </mxCell>
        <mxCell id="_g9wZrL5RG72bcAjYGhw-74" value="" style="endArrow=classic;html=1;rounded=0;" edge="1" parent="1">
          <mxGeometry width="50" height="50" relative="1" as="geometry">
            <mxPoint x="700" y="1350" as="sourcePoint" />
            <mxPoint x="590" y="1350" as="targetPoint" />
          </mxGeometry>
        </mxCell>
        <mxCell id="_g9wZrL5RG72bcAjYGhw-77" value="" style="endArrow=none;html=1;rounded=0;exitX=0.5;exitY=1;exitDx=0;exitDy=0;" edge="1" parent="1" source="_g9wZrL5RG72bcAjYGhw-23">
          <mxGeometry width="50" height="50" relative="1" as="geometry">
            <mxPoint x="770" y="1720" as="sourcePoint" />
            <mxPoint x="215" y="1620" as="targetPoint" />
          </mxGeometry>
        </mxCell>
        <mxCell id="_g9wZrL5RG72bcAjYGhw-78" value="" style="endArrow=none;html=1;rounded=0;entryX=0.5;entryY=1;entryDx=0;entryDy=0;" edge="1" parent="1" target="_g9wZrL5RG72bcAjYGhw-24">
          <mxGeometry width="50" height="50" relative="1" as="geometry">
            <mxPoint x="399" y="1620" as="sourcePoint" />
            <mxPoint x="820" y="1670" as="targetPoint" />
          </mxGeometry>
        </mxCell>
        <mxCell id="_g9wZrL5RG72bcAjYGhw-79" value="" style="endArrow=none;html=1;rounded=0;entryX=0.5;entryY=1;entryDx=0;entryDy=0;" edge="1" parent="1" target="_g9wZrL5RG72bcAjYGhw-22">
          <mxGeometry width="50" height="50" relative="1" as="geometry">
            <mxPoint x="590" y="1620" as="sourcePoint" />
            <mxPoint x="820" y="1670" as="targetPoint" />
          </mxGeometry>
        </mxCell>
        <mxCell id="_g9wZrL5RG72bcAjYGhw-80" value="" style="endArrow=none;html=1;rounded=0;" edge="1" parent="1">
          <mxGeometry width="50" height="50" relative="1" as="geometry">
            <mxPoint x="220" y="1620" as="sourcePoint" />
            <mxPoint x="600" y="1620" as="targetPoint" />
          </mxGeometry>
        </mxCell>
        <mxCell id="_g9wZrL5RG72bcAjYGhw-81" value="" style="endArrow=classic;html=1;rounded=0;entryX=0.5;entryY=0;entryDx=0;entryDy=0;" edge="1" parent="1" target="_g9wZrL5RG72bcAjYGhw-36">
          <mxGeometry width="50" height="50" relative="1" as="geometry">
            <mxPoint x="400" y="1620" as="sourcePoint" />
            <mxPoint x="820" y="1670" as="targetPoint" />
          </mxGeometry>
        </mxCell>
        <mxCell id="_g9wZrL5RG72bcAjYGhw-82" value="" style="endArrow=classic;html=1;rounded=0;exitX=0.5;exitY=1;exitDx=0;exitDy=0;entryX=0.5;entryY=0;entryDx=0;entryDy=0;" edge="1" parent="1" source="_g9wZrL5RG72bcAjYGhw-36" target="_g9wZrL5RG72bcAjYGhw-37">
          <mxGeometry width="50" height="50" relative="1" as="geometry">
            <mxPoint x="770" y="2010" as="sourcePoint" />
            <mxPoint x="820" y="1960" as="targetPoint" />
          </mxGeometry>
        </mxCell>
        <mxCell id="_g9wZrL5RG72bcAjYGhw-86" value="" style="endArrow=none;html=1;rounded=0;exitX=0;exitY=0.5;exitDx=0;exitDy=0;" edge="1" parent="1" source="_g9wZrL5RG72bcAjYGhw-37">
          <mxGeometry width="50" height="50" relative="1" as="geometry">
            <mxPoint x="400" y="1990" as="sourcePoint" />
            <mxPoint y="1885" as="targetPoint" />
          </mxGeometry>
        </mxCell>
        <mxCell id="_g9wZrL5RG72bcAjYGhw-87" value="" style="endArrow=none;html=1;rounded=0;" edge="1" parent="1">
          <mxGeometry width="50" height="50" relative="1" as="geometry">
            <mxPoint y="1890" as="sourcePoint" />
            <mxPoint y="200" as="targetPoint" />
          </mxGeometry>
        </mxCell>
        <mxCell id="_g9wZrL5RG72bcAjYGhw-88" value="" style="endArrow=classic;html=1;rounded=0;" edge="1" parent="1">
          <mxGeometry width="50" height="50" relative="1" as="geometry">
            <mxPoint y="210" as="sourcePoint" />
            <mxPoint x="410" y="210" as="targetPoint" />
          </mxGeometry>
        </mxCell>
        <mxCell id="_g9wZrL5RG72bcAjYGhw-92" value="" style="endArrow=classic;html=1;rounded=0;exitX=0.5;exitY=1;exitDx=0;exitDy=0;" edge="1" parent="1" source="_g9wZrL5RG72bcAjYGhw-37" target="_g9wZrL5RG72bcAjYGhw-39">
          <mxGeometry width="50" height="50" relative="1" as="geometry">
            <mxPoint x="670" y="1890" as="sourcePoint" />
            <mxPoint x="670" y="1990" as="targetPoint" />
          </mxGeometry>
        </mxCell>
        <mxCell id="_g9wZrL5RG72bcAjYGhw-97" value="" style="endArrow=classic;html=1;rounded=0;exitX=0.5;exitY=1;exitDx=0;exitDy=0;" edge="1" parent="1" source="_g9wZrL5RG72bcAjYGhw-2" target="_g9wZrL5RG72bcAjYGhw-10">
          <mxGeometry width="50" height="50" relative="1" as="geometry">
            <mxPoint x="770" y="230" as="sourcePoint" />
            <mxPoint x="820" y="180" as="targetPoint" />
          </mxGeometry>
        </mxCell>
        <mxCell id="_g9wZrL5RG72bcAjYGhw-98" value="Прошло 30 секунд после прошлой перерисовки сцены" style="strokeWidth=2;html=1;shape=mxgraph.flowchart.loop_limit;whiteSpace=wrap;direction=west;" vertex="1" parent="1">
          <mxGeometry x="313.75" y="2200" width="170" height="86" as="geometry" />
        </mxCell>
        <mxCell id="_g9wZrL5RG72bcAjYGhw-100" value="" style="endArrow=classic;html=1;rounded=0;entryX=0.5;entryY=1;entryDx=0;entryDy=0;entryPerimeter=0;" edge="1" parent="1" target="_g9wZrL5RG72bcAjYGhw-98">
          <mxGeometry width="50" height="50" relative="1" as="geometry">
            <mxPoint x="399" y="2140" as="sourcePoint" />
            <mxPoint x="411" y="2060" as="targetPoint" />
          </mxGeometry>
        </mxCell>
        <mxCell id="_g9wZrL5RG72bcAjYGhw-101" value="" style="endArrow=none;html=1;rounded=0;exitX=1;exitY=0.5;exitDx=0;exitDy=0;exitPerimeter=0;" edge="1" parent="1" source="_g9wZrL5RG72bcAjYGhw-98">
          <mxGeometry width="50" height="50" relative="1" as="geometry">
            <mxPoint x="770" y="1960" as="sourcePoint" />
            <mxPoint x="-130" y="2243" as="targetPoint" />
          </mxGeometry>
        </mxCell>
        <mxCell id="_g9wZrL5RG72bcAjYGhw-102" value="" style="endArrow=none;html=1;rounded=0;" edge="1" parent="1">
          <mxGeometry width="50" height="50" relative="1" as="geometry">
            <mxPoint x="-130" y="2250" as="sourcePoint" />
            <mxPoint x="-140" y="79.33329264322917" as="targetPoint" />
          </mxGeometry>
        </mxCell>
        <mxCell id="_g9wZrL5RG72bcAjYGhw-103" value="" style="endArrow=classic;html=1;rounded=0;entryX=0.016;entryY=0.35;entryDx=0;entryDy=0;entryPerimeter=0;" edge="1" parent="1" target="_g9wZrL5RG72bcAjYGhw-10">
          <mxGeometry width="50" height="50" relative="1" as="geometry">
            <mxPoint x="-140" y="80" as="sourcePoint" />
            <mxPoint x="310" y="80" as="targetPoint" />
          </mxGeometry>
        </mxCell>
        <mxCell id="_g9wZrL5RG72bcAjYGhw-105" value="Проецирование текущей сцены&lt;br&gt;в двумерную плоскость" style="rounded=0;whiteSpace=wrap;html=1;" vertex="1" parent="1">
          <mxGeometry x="1238.75" y="1880" width="146.5" height="75" as="geometry" />
        </mxCell>
        <mxCell id="_g9wZrL5RG72bcAjYGhw-106" value="" style="endArrow=none;html=1;rounded=0;exitX=1;exitY=0.5;exitDx=0;exitDy=0;" edge="1" parent="1" source="_g9wZrL5RG72bcAjYGhw-6">
          <mxGeometry width="50" height="50" relative="1" as="geometry">
            <mxPoint x="710" y="1180" as="sourcePoint" />
            <mxPoint x="1310" y="945" as="targetPoint" />
          </mxGeometry>
        </mxCell>
        <mxCell id="_g9wZrL5RG72bcAjYGhw-107" value="" style="endArrow=classic;html=1;rounded=0;entryX=0.5;entryY=0;entryDx=0;entryDy=0;" edge="1" parent="1" target="_g9wZrL5RG72bcAjYGhw-25">
          <mxGeometry width="50" height="50" relative="1" as="geometry">
            <mxPoint x="1310" y="940" as="sourcePoint" />
            <mxPoint x="760" y="1130" as="targetPoint" />
          </mxGeometry>
        </mxCell>
        <mxCell id="_g9wZrL5RG72bcAjYGhw-108" value="" style="endArrow=classic;html=1;rounded=0;exitX=0.5;exitY=1;exitDx=0;exitDy=0;entryX=0.5;entryY=0;entryDx=0;entryDy=0;" edge="1" parent="1" source="_g9wZrL5RG72bcAjYGhw-25" target="_g9wZrL5RG72bcAjYGhw-26">
          <mxGeometry width="50" height="50" relative="1" as="geometry">
            <mxPoint x="1070" y="1270" as="sourcePoint" />
            <mxPoint x="1120" y="1220" as="targetPoint" />
          </mxGeometry>
        </mxCell>
        <mxCell id="_g9wZrL5RG72bcAjYGhw-109" value="" style="endArrow=classic;html=1;rounded=0;exitX=0.5;exitY=1;exitDx=0;exitDy=0;" edge="1" parent="1" source="_g9wZrL5RG72bcAjYGhw-26" target="_g9wZrL5RG72bcAjYGhw-27">
          <mxGeometry width="50" height="50" relative="1" as="geometry">
            <mxPoint x="1070" y="1270" as="sourcePoint" />
            <mxPoint x="1120" y="1220" as="targetPoint" />
          </mxGeometry>
        </mxCell>
        <mxCell id="_g9wZrL5RG72bcAjYGhw-110" value="" style="endArrow=classic;html=1;rounded=0;exitX=0.5;exitY=1;exitDx=0;exitDy=0;entryX=0.5;entryY=0;entryDx=0;entryDy=0;" edge="1" parent="1" source="_g9wZrL5RG72bcAjYGhw-27" target="_g9wZrL5RG72bcAjYGhw-30">
          <mxGeometry width="50" height="50" relative="1" as="geometry">
            <mxPoint x="1070" y="1400" as="sourcePoint" />
            <mxPoint x="1120" y="1350" as="targetPoint" />
          </mxGeometry>
        </mxCell>
        <mxCell id="_g9wZrL5RG72bcAjYGhw-111" value="" style="endArrow=none;html=1;rounded=0;entryX=0.5;entryY=1;entryDx=0;entryDy=0;" edge="1" parent="1" target="_g9wZrL5RG72bcAjYGhw-30">
          <mxGeometry width="50" height="50" relative="1" as="geometry">
            <mxPoint x="1312" y="1520" as="sourcePoint" />
            <mxPoint x="1120" y="1500" as="targetPoint" />
          </mxGeometry>
        </mxCell>
        <mxCell id="_g9wZrL5RG72bcAjYGhw-112" value="" style="endArrow=none;html=1;rounded=0;" edge="1" parent="1">
          <mxGeometry width="50" height="50" relative="1" as="geometry">
            <mxPoint x="1120" y="1520" as="sourcePoint" />
            <mxPoint x="1520" y="1519" as="targetPoint" />
          </mxGeometry>
        </mxCell>
        <mxCell id="_g9wZrL5RG72bcAjYGhw-113" value="" style="endArrow=classic;html=1;rounded=0;entryX=0.5;entryY=0;entryDx=0;entryDy=0;" edge="1" parent="1" target="_g9wZrL5RG72bcAjYGhw-29">
          <mxGeometry width="50" height="50" relative="1" as="geometry">
            <mxPoint x="1120" y="1520" as="sourcePoint" />
            <mxPoint x="1120" y="1500" as="targetPoint" />
          </mxGeometry>
        </mxCell>
        <mxCell id="_g9wZrL5RG72bcAjYGhw-114" value="" style="endArrow=classic;html=1;rounded=0;" edge="1" parent="1" target="_g9wZrL5RG72bcAjYGhw-31">
          <mxGeometry width="50" height="50" relative="1" as="geometry">
            <mxPoint x="1310" y="1520" as="sourcePoint" />
            <mxPoint x="1120" y="1500" as="targetPoint" />
          </mxGeometry>
        </mxCell>
        <mxCell id="_g9wZrL5RG72bcAjYGhw-115" value="" style="endArrow=classic;html=1;rounded=0;" edge="1" parent="1" target="_g9wZrL5RG72bcAjYGhw-32">
          <mxGeometry width="50" height="50" relative="1" as="geometry">
            <mxPoint x="1520" y="1520" as="sourcePoint" />
            <mxPoint x="1120" y="1500" as="targetPoint" />
          </mxGeometry>
        </mxCell>
        <mxCell id="_g9wZrL5RG72bcAjYGhw-116" value="" style="endArrow=classic;html=1;rounded=0;exitX=0.5;exitY=1;exitDx=0;exitDy=0;entryX=0.5;entryY=0;entryDx=0;entryDy=0;" edge="1" parent="1" source="_g9wZrL5RG72bcAjYGhw-29" target="_g9wZrL5RG72bcAjYGhw-35">
          <mxGeometry width="50" height="50" relative="1" as="geometry">
            <mxPoint x="1040" y="1680" as="sourcePoint" />
            <mxPoint x="1090" y="1630" as="targetPoint" />
          </mxGeometry>
        </mxCell>
        <mxCell id="_g9wZrL5RG72bcAjYGhw-117" value="" style="endArrow=classic;html=1;rounded=0;exitX=0.5;exitY=1;exitDx=0;exitDy=0;entryX=0.5;entryY=0;entryDx=0;entryDy=0;" edge="1" parent="1" source="_g9wZrL5RG72bcAjYGhw-31" target="_g9wZrL5RG72bcAjYGhw-34">
          <mxGeometry width="50" height="50" relative="1" as="geometry">
            <mxPoint x="1040" y="1680" as="sourcePoint" />
            <mxPoint x="1090" y="1630" as="targetPoint" />
          </mxGeometry>
        </mxCell>
        <mxCell id="_g9wZrL5RG72bcAjYGhw-118" value="" style="endArrow=classic;html=1;rounded=0;exitX=0.5;exitY=1;exitDx=0;exitDy=0;" edge="1" parent="1" source="_g9wZrL5RG72bcAjYGhw-32" target="_g9wZrL5RG72bcAjYGhw-33">
          <mxGeometry width="50" height="50" relative="1" as="geometry">
            <mxPoint x="1040" y="1680" as="sourcePoint" />
            <mxPoint x="1090" y="1630" as="targetPoint" />
          </mxGeometry>
        </mxCell>
        <mxCell id="_g9wZrL5RG72bcAjYGhw-119" value="" style="endArrow=none;html=1;rounded=0;entryX=0.5;entryY=1;entryDx=0;entryDy=0;" edge="1" parent="1" target="_g9wZrL5RG72bcAjYGhw-35">
          <mxGeometry width="50" height="50" relative="1" as="geometry">
            <mxPoint x="1120" y="1820" as="sourcePoint" />
            <mxPoint x="1080" y="1780" as="targetPoint" />
          </mxGeometry>
        </mxCell>
        <mxCell id="_g9wZrL5RG72bcAjYGhw-120" value="" style="endArrow=none;html=1;rounded=0;" edge="1" parent="1">
          <mxGeometry width="50" height="50" relative="1" as="geometry">
            <mxPoint x="1120" y="1820" as="sourcePoint" />
            <mxPoint x="1520" y="1820" as="targetPoint" />
          </mxGeometry>
        </mxCell>
        <mxCell id="_g9wZrL5RG72bcAjYGhw-122" value="" style="endArrow=none;html=1;rounded=0;entryX=0.5;entryY=1;entryDx=0;entryDy=0;" edge="1" parent="1" target="_g9wZrL5RG72bcAjYGhw-34">
          <mxGeometry width="50" height="50" relative="1" as="geometry">
            <mxPoint x="1311" y="1820" as="sourcePoint" />
            <mxPoint x="1080" y="1780" as="targetPoint" />
          </mxGeometry>
        </mxCell>
        <mxCell id="_g9wZrL5RG72bcAjYGhw-123" value="" style="endArrow=none;html=1;rounded=0;entryX=0.5;entryY=1;entryDx=0;entryDy=0;" edge="1" parent="1" target="_g9wZrL5RG72bcAjYGhw-33">
          <mxGeometry width="50" height="50" relative="1" as="geometry">
            <mxPoint x="1517" y="1820" as="sourcePoint" />
            <mxPoint x="1080" y="1780" as="targetPoint" />
          </mxGeometry>
        </mxCell>
        <mxCell id="_g9wZrL5RG72bcAjYGhw-124" value="" style="endArrow=classic;html=1;rounded=0;" edge="1" parent="1" target="_g9wZrL5RG72bcAjYGhw-105">
          <mxGeometry width="50" height="50" relative="1" as="geometry">
            <mxPoint x="1310" y="1820" as="sourcePoint" />
            <mxPoint x="1080" y="1780" as="targetPoint" />
          </mxGeometry>
        </mxCell>
        <mxCell id="_g9wZrL5RG72bcAjYGhw-125" value="" style="endArrow=none;html=1;rounded=0;entryX=0.5;entryY=1;entryDx=0;entryDy=0;" edge="1" parent="1" target="_g9wZrL5RG72bcAjYGhw-105">
          <mxGeometry width="50" height="50" relative="1" as="geometry">
            <mxPoint x="1312" y="2000" as="sourcePoint" />
            <mxPoint x="930" y="2010" as="targetPoint" />
          </mxGeometry>
        </mxCell>
        <mxCell id="_g9wZrL5RG72bcAjYGhw-127" value="" style="endArrow=classic;html=1;rounded=0;" edge="1" parent="1">
          <mxGeometry width="50" height="50" relative="1" as="geometry">
            <mxPoint x="1310" y="2000" as="sourcePoint" />
            <mxPoint x="400" y="2000" as="targetPoint" />
          </mxGeometry>
        </mxCell>
      </root>
    </mxGraphModel>
  </diagram>
</mxfile>
